<?xml version="1.0"?>
<!-- Generated by SVGo (float) -->
<svg width="1200.00" height="900.00"
     xmlns="http://www.w3.org/2000/svg"
     xmlns:xlink="http://www.w3.org/1999/xlink">
<title>Du Bois Inclusive Cirriculum for Quantitative Methods and Data Science Instruction</title>
<rect x="0.00" y="0.00" width="1200.00" height="900.00" style="fill:white" />
<g style="text-anchor:middle;font-family:Calibri,sans-serif">
<text x="144.00" y="30.00" style="text-anchor:start;font-size:24.000000px" >Du Bois Inclusive Cirriculum for Quantitative Methods and Data Science Instruction</text>
<g style="text-anchor:start;fill:red;font-size:12.000000">
</g>
<line x1="488.00" y1="40.00" x2="488.00" y2="900.00" style="stroke:#BBBBBBCC;stroke-width:0.75px" />
<rect x="144.00" y="40.00" width="344.00" height="35.00" rx="5.00" ry="5.00" style="stroke:white;fill:#000000" />
<text x="316.00" y="60.50" style="text-anchor:middle;fill:white;font-size:12.000000px" >2023</text>
<line x1="832.00" y1="40.00" x2="832.00" y2="900.00" style="stroke:#BBBBBBCC;stroke-width:0.75px" />
<rect x="488.00" y="40.00" width="344.00" height="35.00" rx="5.00" ry="5.00" style="stroke:white;fill:#000000" />
<text x="660.00" y="60.50" style="text-anchor:middle;fill:white;font-size:12.000000px" >2024</text>
<line x1="1176.00" y1="40.00" x2="1176.00" y2="900.00" style="stroke:#BBBBBBCC;stroke-width:0.75px" />
<rect x="832.00" y="40.00" width="344.00" height="35.00" rx="5.00" ry="5.00" style="stroke:white;fill:#000000" />
<text x="1004.00" y="60.50" style="text-anchor:middle;fill:white;font-size:12.000000px" >2025</text>
<g style="text-anchor:start;fill:red;font-size:12.000000">
</g>
<rect x="144.00" y="75.00" width="28.67" height="25.00" rx="5.00" ry="5.00" style="stroke:white;fill:#BBBBBB;fill-opacity:0.53" />
<text x="158.33" y="90.50" style="text-anchor:middle;fill:black;font-size:12.000000px" >Jan</text>
<rect x="172.67" y="75.00" width="28.67" height="25.00" rx="5.00" ry="5.00" style="stroke:white;fill:#BBBBBB;fill-opacity:0.53" />
<text x="187.00" y="90.50" style="text-anchor:middle;fill:black;font-size:12.000000px" >Feb</text>
<rect x="201.33" y="75.00" width="28.67" height="25.00" rx="5.00" ry="5.00" style="stroke:white;fill:#BBBBBB;fill-opacity:0.53" />
<text x="215.67" y="90.50" style="text-anchor:middle;fill:black;font-size:12.000000px" >Mar</text>
<rect x="230.00" y="75.00" width="28.67" height="25.00" rx="5.00" ry="5.00" style="stroke:white;fill:#BBBBBB;fill-opacity:0.53" />
<text x="244.33" y="90.50" style="text-anchor:middle;fill:black;font-size:12.000000px" >Apr</text>
<rect x="258.67" y="75.00" width="28.67" height="25.00" rx="5.00" ry="5.00" style="stroke:white;fill:#BBBBBB;fill-opacity:0.53" />
<text x="273.00" y="90.50" style="text-anchor:middle;fill:black;font-size:12.000000px" >May</text>
<line x1="316.00" y1="75.00" x2="316.00" y2="900.00" style="stroke:#BBBBBBCC;stroke-width:0.75px" />
<rect x="287.33" y="75.00" width="28.67" height="25.00" rx="5.00" ry="5.00" style="stroke:white;fill:#BBBBBB;fill-opacity:0.53" />
<text x="301.67" y="90.50" style="text-anchor:middle;fill:black;font-size:12.000000px" >Jun</text>
<rect x="316.00" y="75.00" width="28.67" height="25.00" rx="5.00" ry="5.00" style="stroke:white;fill:#BBBBBB;fill-opacity:0.53" />
<text x="330.33" y="90.50" style="text-anchor:middle;fill:black;font-size:12.000000px" >Jul</text>
<rect x="344.67" y="75.00" width="28.67" height="25.00" rx="5.00" ry="5.00" style="stroke:white;fill:#BBBBBB;fill-opacity:0.53" />
<text x="359.00" y="90.50" style="text-anchor:middle;fill:black;font-size:12.000000px" >Aug</text>
<rect x="373.33" y="75.00" width="28.67" height="25.00" rx="5.00" ry="5.00" style="stroke:white;fill:#BBBBBB;fill-opacity:0.53" />
<text x="387.67" y="90.50" style="text-anchor:middle;fill:black;font-size:12.000000px" >Sep</text>
<rect x="402.00" y="75.00" width="28.67" height="25.00" rx="5.00" ry="5.00" style="stroke:white;fill:#BBBBBB;fill-opacity:0.53" />
<text x="416.33" y="90.50" style="text-anchor:middle;fill:black;font-size:12.000000px" >Oct</text>
<rect x="430.67" y="75.00" width="28.67" height="25.00" rx="5.00" ry="5.00" style="stroke:white;fill:#BBBBBB;fill-opacity:0.53" />
<text x="445.00" y="90.50" style="text-anchor:middle;fill:black;font-size:12.000000px" >Nov</text>
<rect x="459.33" y="75.00" width="28.67" height="25.00" rx="5.00" ry="5.00" style="stroke:white;fill:#BBBBBB;fill-opacity:0.53" />
<text x="473.67" y="90.50" style="text-anchor:middle;fill:black;font-size:12.000000px" >Dec</text>
<rect x="488.00" y="75.00" width="28.67" height="25.00" rx="5.00" ry="5.00" style="stroke:white;fill:#BBBBBB;fill-opacity:0.53" />
<text x="502.33" y="90.50" style="text-anchor:middle;fill:black;font-size:12.000000px" >Jan</text>
<rect x="516.67" y="75.00" width="28.67" height="25.00" rx="5.00" ry="5.00" style="stroke:white;fill:#BBBBBB;fill-opacity:0.53" />
<text x="531.00" y="90.50" style="text-anchor:middle;fill:black;font-size:12.000000px" >Feb</text>
<rect x="545.33" y="75.00" width="28.67" height="25.00" rx="5.00" ry="5.00" style="stroke:white;fill:#BBBBBB;fill-opacity:0.53" />
<text x="559.67" y="90.50" style="text-anchor:middle;fill:black;font-size:12.000000px" >Mar</text>
<rect x="574.00" y="75.00" width="28.67" height="25.00" rx="5.00" ry="5.00" style="stroke:white;fill:#BBBBBB;fill-opacity:0.53" />
<text x="588.33" y="90.50" style="text-anchor:middle;fill:black;font-size:12.000000px" >Apr</text>
<rect x="602.67" y="75.00" width="28.67" height="25.00" rx="5.00" ry="5.00" style="stroke:white;fill:#BBBBBB;fill-opacity:0.53" />
<text x="617.00" y="90.50" style="text-anchor:middle;fill:black;font-size:12.000000px" >May</text>
<line x1="660.00" y1="75.00" x2="660.00" y2="900.00" style="stroke:#BBBBBBCC;stroke-width:0.75px" />
<rect x="631.33" y="75.00" width="28.67" height="25.00" rx="5.00" ry="5.00" style="stroke:white;fill:#BBBBBB;fill-opacity:0.53" />
<text x="645.67" y="90.50" style="text-anchor:middle;fill:black;font-size:12.000000px" >Jun</text>
<rect x="660.00" y="75.00" width="28.67" height="25.00" rx="5.00" ry="5.00" style="stroke:white;fill:#BBBBBB;fill-opacity:0.53" />
<text x="674.33" y="90.50" style="text-anchor:middle;fill:black;font-size:12.000000px" >Jul</text>
<rect x="688.67" y="75.00" width="28.67" height="25.00" rx="5.00" ry="5.00" style="stroke:white;fill:#BBBBBB;fill-opacity:0.53" />
<text x="703.00" y="90.50" style="text-anchor:middle;fill:black;font-size:12.000000px" >Aug</text>
<rect x="717.33" y="75.00" width="28.67" height="25.00" rx="5.00" ry="5.00" style="stroke:white;fill:#BBBBBB;fill-opacity:0.53" />
<text x="731.67" y="90.50" style="text-anchor:middle;fill:black;font-size:12.000000px" >Sep</text>
<rect x="746.00" y="75.00" width="28.67" height="25.00" rx="5.00" ry="5.00" style="stroke:white;fill:#BBBBBB;fill-opacity:0.53" />
<text x="760.33" y="90.50" style="text-anchor:middle;fill:black;font-size:12.000000px" >Oct</text>
<rect x="774.67" y="75.00" width="28.67" height="25.00" rx="5.00" ry="5.00" style="stroke:white;fill:#BBBBBB;fill-opacity:0.53" />
<text x="789.00" y="90.50" style="text-anchor:middle;fill:black;font-size:12.000000px" >Nov</text>
<rect x="803.33" y="75.00" width="28.67" height="25.00" rx="5.00" ry="5.00" style="stroke:white;fill:#BBBBBB;fill-opacity:0.53" />
<text x="817.67" y="90.50" style="text-anchor:middle;fill:black;font-size:12.000000px" >Dec</text>
<rect x="832.00" y="75.00" width="28.67" height="25.00" rx="5.00" ry="5.00" style="stroke:white;fill:#BBBBBB;fill-opacity:0.53" />
<text x="846.33" y="90.50" style="text-anchor:middle;fill:black;font-size:12.000000px" >Jan</text>
<rect x="860.67" y="75.00" width="28.67" height="25.00" rx="5.00" ry="5.00" style="stroke:white;fill:#BBBBBB;fill-opacity:0.53" />
<text x="875.00" y="90.50" style="text-anchor:middle;fill:black;font-size:12.000000px" >Feb</text>
<rect x="889.33" y="75.00" width="28.67" height="25.00" rx="5.00" ry="5.00" style="stroke:white;fill:#BBBBBB;fill-opacity:0.53" />
<text x="903.67" y="90.50" style="text-anchor:middle;fill:black;font-size:12.000000px" >Mar</text>
<rect x="918.00" y="75.00" width="28.67" height="25.00" rx="5.00" ry="5.00" style="stroke:white;fill:#BBBBBB;fill-opacity:0.53" />
<text x="932.33" y="90.50" style="text-anchor:middle;fill:black;font-size:12.000000px" >Apr</text>
<rect x="946.67" y="75.00" width="28.67" height="25.00" rx="5.00" ry="5.00" style="stroke:white;fill:#BBBBBB;fill-opacity:0.53" />
<text x="961.00" y="90.50" style="text-anchor:middle;fill:black;font-size:12.000000px" >May</text>
<line x1="1004.00" y1="75.00" x2="1004.00" y2="900.00" style="stroke:#BBBBBBCC;stroke-width:0.75px" />
<rect x="975.33" y="75.00" width="28.67" height="25.00" rx="5.00" ry="5.00" style="stroke:white;fill:#BBBBBB;fill-opacity:0.53" />
<text x="989.67" y="90.50" style="text-anchor:middle;fill:black;font-size:12.000000px" >Jun</text>
<rect x="1004.00" y="75.00" width="28.67" height="25.00" rx="5.00" ry="5.00" style="stroke:white;fill:#BBBBBB;fill-opacity:0.53" />
<text x="1018.33" y="90.50" style="text-anchor:middle;fill:black;font-size:12.000000px" >Jul</text>
<rect x="1032.67" y="75.00" width="28.67" height="25.00" rx="5.00" ry="5.00" style="stroke:white;fill:#BBBBBB;fill-opacity:0.53" />
<text x="1047.00" y="90.50" style="text-anchor:middle;fill:black;font-size:12.000000px" >Aug</text>
<rect x="1061.33" y="75.00" width="28.67" height="25.00" rx="5.00" ry="5.00" style="stroke:white;fill:#BBBBBB;fill-opacity:0.53" />
<text x="1075.67" y="90.50" style="text-anchor:middle;fill:black;font-size:12.000000px" >Sep</text>
<rect x="1090.00" y="75.00" width="28.67" height="25.00" rx="5.00" ry="5.00" style="stroke:white;fill:#BBBBBB;fill-opacity:0.53" />
<text x="1104.33" y="90.50" style="text-anchor:middle;fill:black;font-size:12.000000px" >Oct</text>
<rect x="1118.67" y="75.00" width="28.67" height="25.00" rx="5.00" ry="5.00" style="stroke:white;fill:#BBBBBB;fill-opacity:0.53" />
<text x="1133.00" y="90.50" style="text-anchor:middle;fill:black;font-size:12.000000px" >Nov</text>
<rect x="1147.33" y="75.00" width="28.67" height="25.00" rx="5.00" ry="5.00" style="stroke:white;fill:#BBBBBB;fill-opacity:0.53" />
<text x="1161.67" y="90.50" style="text-anchor:middle;fill:black;font-size:12.000000px" >Dec</text>
<g style="font-weight:bold">
<g style="font-size:14.00px;fill:black;text-anchor:end">
<text x="134.00" y="116.00" >Student Focus Groups</text>
</g>
</g>
<line x1="144.00" y1="100.00" x2="1176.00" y2="100.00" style="stroke:#BBBBBBCC;stroke-width:0.75px" />
<g style="text-anchor:start;fill:red;font-size:12.000000">
</g>
<rect x="287.33" y="100.00" width="57.33" height="25.00" rx="5.00" ry="5.00" style="stroke:white;fill:#654321;fill-opacity:0.27" />
<text x="316.00" y="115.50" style="text-anchor:middle;fill:black;font-size:12.000000px" >Syllabus Collection</text>
<rect x="287.33" y="125.00" width="143.33" height="25.00" rx="5.00" ry="5.00" style="stroke:white;fill:#654321;fill-opacity:0.27" />
<text x="359.00" y="140.50" style="text-anchor:middle;fill:black;font-size:12.000000px" >IRB Draft/Revision</text>
<rect x="459.33" y="150.00" width="172.00" height="25.00" rx="5.00" ry="5.00" style="stroke:white;fill:#654321;fill-opacity:0.27" />
<text x="545.33" y="165.50" style="text-anchor:middle;fill:black;font-size:12.000000px" >Student Focus Groups</text>
<rect x="516.67" y="175.00" width="172.00" height="25.00" rx="5.00" ry="5.00" style="stroke:white;fill:#654321;fill-opacity:0.27" />
<text x="602.67" y="190.50" style="text-anchor:middle;fill:black;font-size:12.000000px" >Implication from workstreams</text>
<rect x="631.33" y="200.00" width="172.00" height="25.00" rx="5.00" ry="5.00" style="stroke:white;fill:#654321;fill-opacity:0.27" />
<text x="717.33" y="215.50" style="text-anchor:middle;fill:black;font-size:12.000000px" >Draft/Submit initial paper</text>
<g style="font-weight:bold">
<g style="font-size:14.00px;fill:black;text-anchor:end">
<text x="134.00" y="266.00" >Faculty Institute</text>
</g>
</g>
<line x1="144.00" y1="250.00" x2="1176.00" y2="250.00" style="stroke:#BBBBBBCC;stroke-width:0.75px" />
<g style="text-anchor:start;fill:red;font-size:12.000000">
</g>
<rect x="287.33" y="250.00" width="143.33" height="25.00" rx="5.00" ry="5.00" style="stroke:white;fill:#dc143c;fill-opacity:0.27" />
<text x="359.00" y="265.50" style="text-anchor:middle;fill:black;font-size:12.000000px" >IRB Draft/Revision</text>
<rect x="430.67" y="275.00" width="86.00" height="25.00" rx="5.00" ry="5.00" style="stroke:white;fill:#dc143c;fill-opacity:0.27" />
<text x="473.67" y="290.50" style="text-anchor:middle;fill:black;font-size:12.000000px" >Recruitment</text>
<rect x="545.33" y="300.00" width="57.33" height="25.00" rx="5.00" ry="5.00" style="stroke:white;fill:#dc143c;fill-opacity:0.27" />
<text x="574.00" y="315.50" style="text-anchor:middle;fill:black;font-size:12.000000px" >Roundtables</text>
<rect x="545.33" y="325.00" width="86.00" height="25.00" rx="5.00" ry="5.00" style="stroke:white;fill:#dc143c;fill-opacity:0.27" />
<text x="588.33" y="340.50" style="text-anchor:middle;fill:black;font-size:12.000000px" >Recommendations</text>
<rect x="631.33" y="350.00" width="86.00" height="25.00" rx="5.00" ry="5.00" style="stroke:white;fill:#dc143c;fill-opacity:0.27" />
<text x="674.33" y="365.50" style="text-anchor:middle;fill:black;font-size:12.000000px" >Draft/Submit initial findings</text>
<rect x="889.33" y="375.00" width="258.00" height="25.00" rx="5.00" ry="5.00" style="stroke:white;fill:#dc143c;fill-opacity:0.27" />
<text x="1018.33" y="390.50" style="text-anchor:middle;fill:black;font-size:12.000000px" >Debrief roundtables</text>
<g style="font-weight:bold">
<g style="font-size:14.00px;fill:black;text-anchor:end">
<text x="134.00" y="441.00" >Module Production</text>
</g>
</g>
<line x1="144.00" y1="425.00" x2="1176.00" y2="425.00" style="stroke:#BBBBBBCC;stroke-width:0.75px" />
<g style="text-anchor:start;fill:red;font-size:12.000000">
</g>
<rect x="344.67" y="425.00" width="28.67" height="25.00" rx="5.00" ry="5.00" style="stroke:white;fill:#786583;fill-opacity:0.27" />
<text x="359.00" y="440.50" style="text-anchor:middle;fill:black;font-size:12.000000px" >Syllabus Analysis</text>
<rect x="373.33" y="450.00" width="86.00" height="25.00" rx="5.00" ry="5.00" style="stroke:white;fill:#786583;fill-opacity:0.27" />
<text x="416.33" y="465.50" style="text-anchor:middle;fill:black;font-size:12.000000px" >Prototypes for Student Surveys</text>
<rect x="459.33" y="475.00" width="86.00" height="25.00" rx="5.00" ry="5.00" style="stroke:white;fill:#786583;fill-opacity:0.27" />
<text x="502.33" y="490.50" style="text-anchor:middle;fill:black;font-size:12.000000px" >Update Student Prototypes</text>
<rect x="602.67" y="500.00" width="86.00" height="25.00" rx="5.00" ry="5.00" style="stroke:white;fill:#786583;fill-opacity:0.27" />
<text x="645.67" y="515.50" style="text-anchor:middle;fill:black;font-size:12.000000px" >Update Faculty Prototypes</text>
<rect x="746.00" y="525.00" width="57.33" height="25.00" rx="5.00" ry="5.00" style="stroke:white;fill:#786583;fill-opacity:0.27" />
<text x="774.67" y="540.50" style="text-anchor:middle;fill:black;font-size:12.000000px" >Final Lesson Plans</text>
<rect x="803.33" y="550.00" width="114.67" height="25.00" rx="5.00" ry="5.00" style="stroke:white;fill:#786583;fill-opacity:0.27" />
<text x="860.67" y="565.50" style="text-anchor:middle;fill:black;font-size:12.000000px" >Build Project Website</text>
<g style="font-weight:bold">
<g style="font-size:14.00px;fill:black;text-anchor:end">
<text x="134.00" y="616.00" >Student Surveys</text>
</g>
</g>
<line x1="144.00" y1="600.00" x2="1176.00" y2="600.00" style="stroke:#BBBBBBCC;stroke-width:0.75px" />
<g style="text-anchor:start;fill:red;font-size:12.000000">
</g>
<rect x="373.33" y="600.00" width="229.33" height="25.00" rx="5.00" ry="5.00" style="stroke:white;fill:#00aa00;fill-opacity:0.27" />
<text x="488.00" y="615.50" style="text-anchor:middle;fill:black;font-size:12.000000px" >IRB Draft/Revision</text>
<rect x="631.33" y="625.00" width="28.67" height="25.00" rx="5.00" ry="5.00" style="stroke:white;fill:#00aa00;fill-opacity:0.27" />
<text x="645.67" y="640.50" style="text-anchor:middle;fill:black;font-size:12.000000px" >Create Survey Instruments</text>
<rect x="832.00" y="650.00" width="57.33" height="25.00" rx="5.00" ry="5.00" style="stroke:white;fill:#00aa00;fill-opacity:0.27" />
<text x="860.67" y="665.50" style="text-anchor:middle;fill:black;font-size:12.000000px" >First wave pre-surveys</text>
<rect x="946.67" y="675.00" width="57.33" height="25.00" rx="5.00" ry="5.00" style="stroke:white;fill:#00aa00;fill-opacity:0.27" />
<text x="975.33" y="690.50" style="text-anchor:middle;fill:black;font-size:12.000000px" >Analyze First wave post-surveys</text>
<g style="font-weight:bold">
<g style="font-size:14.00px;fill:black;text-anchor:end">
<text x="134.00" y="738.50" >Meetings</text>
</g>
</g>
<line x1="144.00" y1="725.00" x2="1176.00" y2="725.00" style="stroke:#BBBBBBCC;stroke-width:0.75px" />
<g style="text-anchor:start;fill:red;font-size:12.000000">
</g>
<rect x="287.33" y="725.00" width="0.00" height="20.00" style="stroke:white;fill:#BBBBBB;fill-opacity:0.53" />
<text x="287.33" y="738.00" style="text-anchor:end;fill:black;font-size:12.000000px" >Online Joint Meeting ★</text>
<rect x="316.00" y="750.00" width="0.00" height="20.00" style="stroke:white;fill:#BBBBBB;fill-opacity:0.53" />
<text x="316.00" y="763.00" style="text-anchor:end;fill:black;font-size:12.000000px" >Online Joint Meeting ★</text>
<rect x="344.67" y="775.00" width="0.00" height="20.00" style="stroke:white;fill:#BBBBBB;fill-opacity:0.53" />
<text x="344.67" y="788.00" style="text-anchor:end;fill:black;font-size:12.000000px" >Online Joint Meeting ★</text>
<rect x="373.33" y="800.00" width="0.00" height="20.00" style="stroke:white;fill:#BBBBBB;fill-opacity:0.53" />
<text x="373.33" y="813.00" style="text-anchor:end;fill:black;font-size:12.000000px" >Online Joint Meeting ★</text>
<rect x="402.00" y="825.00" width="0.00" height="20.00" style="stroke:white;fill:#BBBBBB;fill-opacity:0.53" />
<text x="402.00" y="838.00" style="text-anchor:end;fill:black;font-size:12.000000px" >Fisk Joint Meeting ★</text>
<g style="stroke-width:2;stroke:red;stroke-opacity:0.6;stroke-dasharray:2 2;fill:none">
<path d="M516.67,187.50 Q459.33,487.50 459.33,487.50" />
<circle cx="459.33" cy="487.50" r="4.00" style="stroke:none;fill:red;fill-opacity:0.3" />
<path d="M373.33,462.50 Q459.33,162.50 459.33,162.50" />
<circle cx="459.33" cy="162.50" r="4.00" style="stroke:none;fill:red;fill-opacity:0.3" />
<path d="M459.33,487.50 Q545.33,312.50 545.33,312.50" />
<circle cx="545.33" cy="312.50" r="4.00" style="stroke:none;fill:red;fill-opacity:0.3" />
</g>
</g>
<line x1="144.00" y1="40.00" x2="144.00" y2="900.00" style="stroke:#BBBBBBCC;stroke-width:0.75px" />
<line x1="144.00" y1="900.00" x2="1176.00" y2="900.00" style="stroke:#BBBBBBCC;stroke-width:0.75px" />
</svg>
