<?xml version="1.0"?>
<!-- Generated by gensvg -->
<svg width="1024.00" height="768.00"
     xmlns="http://www.w3.org/2000/svg"
     xmlns:xlink="http://www.w3.org/1999/xlink">
<title>PLANNING TO PLAN</title>
<rect x="0.00" y="0.00" width="1024.00" height="768.00" style="fill:white" />
<g style="text-anchor:middle;font-family:Calibri">
<text x="122.88" y="30.00" style="text-anchor:start;font-size:24.000000px" >PLANNING TO PLAN</text>
<g style="text-anchor:start;fill:red;font-size:12.000000">
</g>
<rect x="122.88" y="40.00" width="73.39" height="40.00" style="stroke:white;fill:#666666" />
<text x="159.57" y="63.00" style="text-anchor:middle;fill:white;font-size:12.000000px" >Jan</text>
<rect x="196.27" y="40.00" width="73.39" height="40.00" style="stroke:white;fill:#666666" />
<text x="232.96" y="63.00" style="text-anchor:middle;fill:white;font-size:12.000000px" >Feb</text>
<rect x="269.65" y="40.00" width="73.39" height="40.00" style="stroke:white;fill:#666666" />
<text x="306.35" y="63.00" style="text-anchor:middle;fill:white;font-size:12.000000px" >Mar</text>
<rect x="343.04" y="40.00" width="73.39" height="40.00" style="stroke:white;fill:#666666" />
<text x="379.73" y="63.00" style="text-anchor:middle;fill:white;font-size:12.000000px" >Apr</text>
<rect x="416.43" y="40.00" width="73.39" height="40.00" style="stroke:white;fill:#666666" />
<text x="453.12" y="63.00" style="text-anchor:middle;fill:white;font-size:12.000000px" >May</text>
<rect x="489.81" y="40.00" width="73.39" height="40.00" style="stroke:white;fill:#666666" />
<text x="526.51" y="63.00" style="text-anchor:middle;fill:white;font-size:12.000000px" >Jun</text>
<rect x="563.20" y="40.00" width="73.39" height="40.00" style="stroke:white;fill:#666666" />
<text x="599.89" y="63.00" style="text-anchor:middle;fill:white;font-size:12.000000px" >Jul</text>
<rect x="636.59" y="40.00" width="73.39" height="40.00" style="stroke:white;fill:#666666" />
<text x="673.28" y="63.00" style="text-anchor:middle;fill:white;font-size:12.000000px" >Aug</text>
<rect x="709.97" y="40.00" width="73.39" height="40.00" style="stroke:white;fill:#666666" />
<text x="746.67" y="63.00" style="text-anchor:middle;fill:white;font-size:12.000000px" >Sep</text>
<rect x="783.36" y="40.00" width="73.39" height="40.00" style="stroke:white;fill:#666666" />
<text x="820.05" y="63.00" style="text-anchor:middle;fill:white;font-size:12.000000px" >Oct</text>
<rect x="856.75" y="40.00" width="73.39" height="40.00" style="stroke:white;fill:#666666" />
<text x="893.44" y="63.00" style="text-anchor:middle;fill:white;font-size:12.000000px" >Nov</text>
<rect x="930.13" y="40.00" width="73.39" height="40.00" style="stroke:white;fill:#666666" />
<text x="966.83" y="63.00" style="text-anchor:middle;fill:white;font-size:12.000000px" >Dec</text>
<g style="font-style:italic">
<g style="font-size:14.00px;fill:black;text-anchor:end">
<text x="112.88" y="103.50" >Facilities</text>
</g>
</g>
<g style="text-anchor:start;fill:red;font-size:12.000000">
</g>
<polyline points="269.65,80.00 396.43,80.00 416.43,100.00 396.43,120.00 269.65,120.00" style="stroke:white;fill:#BBBBBB;fill-opacity:0.53" />
<text x="343.04" y="103.00" style="text-anchor:middle;fill:black;font-size:12.000000px" >Phase 1</text>
<polyline points="489.81,80.00 616.59,80.00 636.59,100.00 616.59,120.00 489.81,120.00" style="stroke:white;fill:#BBBBBB;fill-opacity:0.53" />
<text x="563.20" y="103.00" style="text-anchor:middle;fill:black;font-size:12.000000px" >Phase 2</text>
<polyline points="709.97,80.00 763.36,80.00 783.36,100.00 763.36,120.00 709.97,120.00" style="stroke:white;fill:#BBBBBB;fill-opacity:0.53" />
<text x="746.67" y="103.00" style="text-anchor:middle;fill:black;font-size:12.000000px" >Patch</text>
<g style="font-style:italic">
<g style="font-size:14.00px;fill:black;text-anchor:end">
<text x="112.88" y="143.50" >Network</text>
</g>
</g>
<g style="text-anchor:start;fill:red;font-size:12.000000">
</g>
<rect x="196.27" y="120.00" width="440.32" height="40.00" style="stroke:white;fill:#BBBBBB;fill-opacity:0.53" />
<text x="416.43" y="143.00" style="text-anchor:middle;fill:black;font-size:12.000000px" >Install</text>
<rect x="709.97" y="120.00" width="146.77" height="40.00" style="stroke:white;fill:#BBBBBB;fill-opacity:0.53" />
<text x="783.36" y="143.00" style="text-anchor:middle;fill:black;font-size:12.000000px" >Decomission</text>
<g style="font-style:italic">
<g style="font-size:14.00px;fill:black;text-anchor:end">
<text x="112.88" y="183.50" >Servers</text>
</g>
</g>
<g style="text-anchor:start;fill:red;font-size:12.000000">
</g>
<rect x="416.43" y="160.00" width="220.16" height="40.00" style="stroke:white;fill:#BBBBBB;fill-opacity:0.53" />
<text x="526.51" y="183.00" style="text-anchor:middle;fill:black;font-size:12.000000px" >Install</text>
<rect x="709.97" y="160.00" width="146.77" height="40.00" style="stroke:white;fill:#BBBBBB;fill-opacity:0.53" />
<text x="783.36" y="183.00" style="text-anchor:middle;fill:black;font-size:12.000000px" >Decomission</text>
<g style="font-style:italic">
<g style="font-size:14.00px;fill:black;text-anchor:end">
<text x="112.88" y="223.50" >Applications</text>
</g>
</g>
<g style="text-anchor:start;fill:red;font-size:12.000000">
</g>
<rect x="122.88" y="200.00" width="587.09" height="40.00" style="stroke:white;fill:#BBBBBB;fill-opacity:0.53" />
<text x="416.43" y="223.00" style="text-anchor:middle;fill:black;font-size:12.000000px" >Develop</text>
<rect x="416.43" y="245.00" width="293.55" height="40.00" style="stroke:white;fill:#BBBBBB;fill-opacity:0.53" />
<text x="563.20" y="268.00" style="text-anchor:middle;fill:black;font-size:12.000000px" >Test</text>
<rect x="709.97" y="290.00" width="73.39" height="40.00" style="stroke:white;fill:#BBBBBB;fill-opacity:0.53" />
<text x="746.67" y="313.00" style="text-anchor:middle;fill:black;font-size:12.000000px" >Data Migration</text>
<g style="font-style:italic">
<g style="font-size:14.00px;fill:black;text-anchor:end">
<text x="112.88" y="358.50" >Data</text>
</g>
</g>
<g style="text-anchor:start;fill:red;font-size:12.000000">
</g>
<rect x="122.88" y="335.00" width="366.93" height="40.00" style="stroke:white;fill:#BBBBBB;fill-opacity:0.53" />
<text x="306.35" y="358.00" style="text-anchor:middle;fill:black;font-size:12.000000px" >Migration planning</text>
<g style="font-style:italic">
<g style="font-size:14.00px;fill:black;text-anchor:end">
<text x="112.88" y="398.50" >Support</text>
</g>
</g>
<g style="text-anchor:start;fill:red;font-size:12.000000">
</g>
<rect x="122.88" y="375.00" width="733.87" height="40.00" style="stroke:white;fill:#BBBBBB;fill-opacity:0.53" />
<text x="489.81" y="398.00" style="text-anchor:middle;fill:black;font-size:12.000000px" >Transition</text>
<g style="font-style:italic">
<g style="font-size:14.00px;fill:black;text-anchor:end">
<text x="112.88" y="438.50" >EVENTS</text>
</g>
</g>
<g style="text-anchor:start;fill:red;font-size:12.000000">
</g>
<polyline points="489.81,415.00 689.97,415.00 709.97,435.00 689.97,455.00 489.81,455.00" style="stroke:white;fill:#729BBC" />
<text x="599.89" y="438.00" style="text-anchor:middle;fill:black;font-size:12.000000px" >Freeze</text>
<rect x="930.13" y="415.00" width="73.39" height="40.00" style="stroke:white;fill:#aa0000" />
<text x="966.83" y="438.00" style="text-anchor:middle;fill:white;font-size:12.000000px" >Go Live</text>
<g style="stroke-width:2;stroke:red;stroke-opacity:0.6;stroke-dasharray:2 2;fill:none">
<path d="M709.97,180.00 Q930.13,435.00 930.13,435.00" />
<circle cx="930.13" cy="435.00" r="4.00" style="stroke:none;fill:red;fill-opacity:0.3" />
<path d="M709.97,310.00 Q930.13,435.00 930.13,435.00" />
<circle cx="930.13" cy="435.00" r="4.00" style="stroke:none;fill:red;fill-opacity:0.3" />
<path d="M122.88,395.00 Q930.13,435.00 930.13,435.00" />
<circle cx="930.13" cy="435.00" r="4.00" style="stroke:none;fill:red;fill-opacity:0.3" />
</g>
</g>
<line x1="122.88" y1="40.00" x2="122.88" y2="768.00" style="stroke:#BBBBBBCC;stroke-width:0.75px" />
</svg>
